<?xml version="1.0" encoding="UTF-8" standalone="no"?>
<svg
   xmlns:dc="http://purl.org/dc/elements/1.1/"
   xmlns:cc="http://creativecommons.org/ns#"
   xmlns:rdf="http://www.w3.org/1999/02/22-rdf-syntax-ns#"
   xmlns:svg="http://www.w3.org/2000/svg"
   xmlns="http://www.w3.org/2000/svg"
   xmlns:xlink="http://www.w3.org/1999/xlink"
   viewBox="-100 0 2133.3 1133.3"
   height="1133.3"
   width="2133.3"
   version="1.1">

  <g>
    <image
       class="floor"
       id="image20"
       xlink:href= "./levels_big.jpg"       
       preserveAspectRatio="none"
       height="1133.3"
       width="2133.3" />
  </g>
  <g>
    <path
       id="pl_level_22"
       class="deck"
       d="m 303.65737,503.74415 59.2047,36.06251 13.51842,-5.4869 17.06652,-8.0579 179.64299,101.55105 248.81638,-156.22892 33.48218,15.18372 32.16016,-20.13621 -29.7352,-16.26185 1.89373,-3.77495 63.85895,-42.29197 3.3045,4.50345 -2.82446,41.32891 -26.89076,15.81754 -2.37216,3.21415 -2.68908,36.54254 -42.40071,27.89586 -30.9469,-16.13445 -246.6617,161.71581 -177.74153,-105.24523 -22.23366,12.12342 -6.87547,0.68814 -64.01274,-39.54853 -3.33321,-45.86679 z"
       style="fill:none;fill-rule:evenodd" />
  </g>
  <g>
    <path
       id="pl_level_27"
       class="deck"
       d="m 317.1975,441.21189 3.91693,-0.61518 22.87441,12.10938 14.3961,-9.17642 33.90318,20.19526 21.25006,-10.49376 120.22545,69.39555 c -0.56206,0.99771 0.94693,1.14351 1.68401,1.48463 0.99073,0.45851 1.35381,1.01425 0.7043,2.03737 -1.09007,1.71708 -13.06726,7.5736 -14.14038,9.23985 l 50.96969,27.93623 360.24137,-217.0275 -5.21335,60.26278 -5.39382,4.73528 -59.21131,37.71462 30.95156,16.77954 -37.51386,25.42427 -5.73321,-1.50143 L 822.5402,475.84443 573.4341,632.9969 393.60295,530.66678 l -29.31423,15.52862 -66.70968,-39.93074 0.50037,-4.23434 22.00028,-11.76963 z"
       style="fill:none;fill-rule:evenodd" />
  </g>
  <g>
    <path
       id="pl_level_37"
       class="deck"
       d="m 317.20683,378.93749 22.09206,11.28604 14.3961,-6.17043 33.37343,15.13402 19.77426,-7.17087 129.03524,67.60283 0.13439,4.26229 -14.31766,6.70685 53.76751,27.6737 349.37165,-204.1072 5.02756,1.03541 -6.23616,47.06036 9.51803,4.29124 -0.24218,5.11473 -4.59055,4.78198 -354.98516,211.99345 -56.1448,-30.45808 -0.17666,-4.61797 12.70281,-7.77284 -116.2726,-67.27193 -19.14043,10.36249 -35.85434,-19.00917 -13.65821,8.56978 -23.22438,-13.18263 -4.4905,0.28952 -4.30678,-62.37403 z"
       style="fill:none;fill-rule:evenodd" />
  </g>
  <g>
    <path
       id="pl_level_47"
       class="deck"
       d="m 308.55083,316.25143 2.64527,-3.09965 16.45479,7.4727 47.72499,0.0181 42.27748,0.14034 118.58025,54.71346 0.91195,3.82636 -14.34172,8.3251 53.28748,27.72342 356.8352,-193.00582 3.88153,0.39749 -0.57572,14.92257 -1.70402,18.96188 -3.60345,38.39636 -355.62116,208.16679 -59.09696,-30.00304 -2.07758,-4.30793 14.89401,-7.90877 -122.18048,-64.0803 -18.85072,7.93596 -34.50981,-15.55501 -14.52737,6.32888 -21.02374,-11.20454 -5.21534,-0.58405 z"
       style="fill:none;fill-rule:evenodd" />
  </g>

   <g>
    <path
       id="pl_level_58"
       d="m 338.46051,211.06245 84.61514,0.47537 c 15.2252,5.08407 29.2614,11.35596 45.3182,17.27163 12.96175,-3.68586 24.50765,-10.56219 35.54519,-15.17935 3.74682,-1.56735 30.19543,-11.70367 15.98259,-14.15791 l -0.0301,-8.95476 -0.76347,-7.3891 -4.13719,-3.14363 -3.42295,0.84375 -8.02518,-6.14862 -0.46139,-26.54922 3.4327,-3.2601 2.20704,-6.24925 c 2.70578,-0.89023 4.97183,-0.901 6.83255,-0.1011 4.70841,1.26362 4.80258,3.55262 5.92565,5.61298 l 7.44447,0.37809 0.94089,-5.39054 3.55688,-2.48143 7.57861,0.0134 c 8.92358,-6.68889 17.27014,-10.49271 25.80699,-15.24799 l 198.00276,-97.750637 3.28643,6.265465 -5.19004,2.787119 -3.58777,0.520707 0.63382,3.486016 -174.23915,96.57363 -14.95507,10.5943 -10.15526,3.08101 6.35113,1.97678 4.44953,2.49736 1.79936,8.22148 -3.49697,1.25258 -0.10279,3.57883 3.39715,0.13393 2.78612,1.86352 1.08214,5.16147 -16.9723,8.97763 -5.54394,-1.62862 2.33417,3.08674 1.95514,3.98579 -2.46351,4.07656 10.77496,-5.07057 102.99594,-47.53658 178.52475,64.9123 4.64957,-48.43296 24.40212,-10.14113 66.23431,23.45139 -6.15941,57.17715 -362.09069,196.35131 -60.21302,-32.32488 c 0.2789,-2.33732 -0.70713,-0.58556 13.94406,-11.40878 L 417.68815,325.78407 325.46717,324.83334 C 304.0134,308.9786 286.58487,306.00462 267.15561,296.62829 l 0.63382,-18.38081 6.65513,-40.56455 z"
       style="fill:none;fill-rule:evenodd" />
  </g>
  <g>
    <path
       pointer-events= "visible"
      class="block"
      id="level_22.8"
       d="m 1663.6414,966.72265 -110.2521,-72.60504 -15.6863,9.41177 -44.8179,-27.78712 -67.2269,38.54342 10.7563,7.17087 -103.5294,59.60784 -8.0672,-5.37815 -3.5855,1.79272 -15.2381,-0.89636 -1.7927,6.72269 -23.3053,-1.34454 -36.7507,21.51265 -1.7927,32.2689 35.8543,23.3053 50.1961,1.3445 10.3081,7.6191 4.4818,-3.5855 40.3362,25.9944 -1.3446,2.6891 29.5799,18.3754 166.7226,-95.9104 17.479,12.1008 28.6835,-16.5826 -16.5826,-12.10084 z"
       style="fill:none;fill-rule:evenodd" />
  </g>
  <g>
    <path
    pointer-events= "visible"
      class="block"
      id="level_27.8"
       style="fill:none;fill-rule:evenodd"
       d="m 1663.6414,754.73386 -110.2521,-72.60504 -15.6863,9.41177 -44.8179,-27.78712 -67.2269,38.54342 10.7563,7.17087 -103.5294,59.60784 -8.0672,-5.37815 -3.5855,1.79272 -15.2381,-0.89636 -1.7927,6.72269 -23.3053,-1.34454 -36.7507,21.51265 -1.7927,32.2689 35.8543,23.3053 50.1961,1.3445 10.3081,7.6191 4.4818,-3.5855 40.3362,25.9944 -1.3446,2.6891 29.5799,18.3754 166.7226,-95.9104 17.479,12.1008 28.6835,-16.5826 -16.5826,-12.10084 z"/>
  </g>
  <g>
    <path
       pointer-events= "visible"
      class="block"
      id="level_37.8"
       d="m 1664.5378,542.74507 -110.2521,-72.60504 -15.6863,9.41177 -44.8179,-27.78712 -67.2269,38.54342 10.7563,7.17087 -103.5294,59.60784 -8.0672,-5.37815 -3.5855,1.79272 -15.2381,-0.89636 -1.7927,6.72269 -23.3053,-1.34454 -36.7507,21.51265 -1.7927,32.2689 35.8543,23.3053 50.1961,1.3445 10.3081,7.6191 4.4818,-3.5855 40.3362,25.9944 -1.3446,2.6891 29.5799,18.3754 166.7226,-95.9104 17.479,12.1008 28.6835,-16.5826 -16.5826,-12.10084 z"
       style="fill:none;fill-rule:evenodd" />
  </g>
  <g>
    <path
    pointer-events= "visible"
      class="block"
      id="level_47.8"
       style="fill:none;fill-rule:evenodd"
       d="m 1664.5378,329.85992 -110.2521,-72.60504 -15.6863,9.41177 -44.8179,-27.78712 -67.2269,38.54342 10.7563,7.17087 -103.5294,59.60784 -8.0672,-5.37815 -3.5855,1.79272 -15.2381,-0.89636 -1.7927,6.72269 -23.3053,-1.34454 -36.7507,21.51265 -1.7927,32.2689 35.8543,23.3053 50.1961,1.3445 10.3081,7.6191 4.4818,-3.5855 40.3362,25.9944 -1.3446,2.6891 29.5799,18.3754 166.7226,-95.9104 17.479,12.1008 28.6835,-16.5826 -16.5826,-12.10084 z"/>
  </g>
  <g>
    <path
       pointer-events= "visible"
      class="block"
      id="level_58.0"
       d="m 1663.6414,118.76749 -110.2521,-72.605039 -15.6863,9.41177 -44.8179,-27.78712 -67.2269,38.54342 10.7563,7.17087 -103.5294,59.607839 -8.0672,-5.37815 -3.5855,1.79272 -15.2381,-0.89636 -1.7927,6.72269 -23.3053,-1.34454 -36.7507,21.51265 -1.7927,32.2689 35.8543,23.3053 50.1961,1.3445 10.3081,7.6191 4.4818,-3.5855 40.3362,25.9944 -1.3446,2.6891 29.5799,18.3754 166.7226,-95.9104 17.479,12.1008 28.6835,-16.5826 -16.5826,-12.10084 z"
       style="fill:none;fill-rule:evenodd" />
  </g>

</svg>


