<?xml version="1.0" encoding="UTF-8" standalone="no"?>
<svg
   xmlns:dc="http://purl.org/dc/elements/1.1/"
   xmlns:cc="http://creativecommons.org/ns#"
   xmlns:rdf="http://www.w3.org/1999/02/22-rdf-syntax-ns#"
   xmlns:svg="http://www.w3.org/2000/svg"
   xmlns="http://www.w3.org/2000/svg"
   xmlns:xlink="http://www.w3.org/1999/xlink"
      viewBox="0 0 1066.6667 1440"
   height="1440"
   width="1066.6667"
   id="svg10"
   version="1.1">

  <g>
    <image
      class="floor"
       id="image20"
       href= "./levels_small.jpg"     
       preserveAspectRatio="none"
       height="1440"
       width="1066.6667" />
  </g>
  <g>
    <path
      pointer-events= "visible"
      class="block"
      id="level_22.8"
       d="m 969.36585,1208.6341 -135.21951,-87.8048 -18.87805,11.4146 -54.43902,-34.6829 -83.41464,47.4146 13.17074,8.7805 -129.07317,73.3171 -9.21952,-5.7073 -4.39024,1.7561 -20.63415,-1.7561 -0.87805,8.7804 h -30.29268 l -44.78049,25.4635 -1.31707,39.5122 43.90244,28.5365 61.46341,2.1952 11.85366,8.3414 7.02439,-4.3902 48.73171,31.6097 -1.31707,3.5122 36.87805,24.1464 207.65853,-118.9756 22.39025,15.3658 34.2439,-20.1951 -21.95122,-15.8049 L 972,1209.9512 Z"
       style="fill:none;fill-rule:evenodd" />
  </g>
  <g>
    <path
      pointer-events= "visible"
      class="block"
      id="level_27.8"
       style="fill:none;fill-rule:evenodd"
       d="m 969.36585,946.09751 -135.21951,-87.8048 -18.87805,11.4146 -54.43902,-34.6829 -83.41464,47.4146 13.17074,8.7805 -129.07317,73.3171 -9.21952,-5.7073 -4.39024,1.7561 -20.63415,-1.7561 -0.87805,8.7804 h -30.29268 l -44.78049,25.4635 -1.31707,39.51219 43.90244,28.5365 61.46341,2.1952 11.85366,8.3414 7.02439,-4.3902 48.73171,31.6097 -1.31707,3.5122 36.87805,24.1464 207.65853,-118.9756 22.39025,15.3658 34.2439,-20.1951 L 900.87805,986.92681 972,947.41461 Z"/>
  </g>
  <g>
    <path
       pointer-events= "visible"
      class="block"
      id="level_37.8"
       d="m 970.24389,682.68287 -135.21951,-87.8048 -18.87805,11.4146 -54.43902,-34.6829 -83.41464,47.4146 13.17074,8.7805 -129.07317,73.3171 -9.21952,-5.7073 -4.39024,1.7561 -20.63415,-1.7561 -0.87805,8.7804 H 496.9756 l -44.78049,25.4635 -1.31707,39.51219 43.90244,28.5365 61.46341,2.1952 11.85366,8.3414 7.02439,-4.3902 48.73171,31.6097 -1.31707,3.5122 36.87805,24.1464 207.65853,-118.9756 22.39025,15.3658 34.2439,-20.1951 -21.95122,-15.80489 71.12195,-39.5122 z"
       style="fill:none;fill-rule:evenodd" />
  </g>
  <g>
    <path
      pointer-events= "visible"
      class="block"
      id="level_47.8"
       style="fill:none;fill-rule:evenodd"
       d="m 970.24389,420.14628 -135.21951,-87.8048 -18.87805,11.4146 -54.43902,-34.6829 -83.41464,47.4146 13.17074,8.7805 -129.07317,73.3171 -9.21952,-5.7073 -4.39024,1.7561 -20.63415,-1.7561 -0.87805,8.7804 H 496.9756 l -44.78049,25.4635 -1.31707,39.51219 43.90244,28.5365 61.46341,2.1952 11.85366,8.3414 7.02439,-4.3902 48.73171,31.6097 -1.31707,3.5122 36.87805,24.1464 207.65853,-118.9756 22.39025,15.3658 34.2439,-20.1951 -21.95122,-15.80489 71.12195,-39.5122 z"/>
  </g>
  <g>
    <path
      pointer-events= "visible"
      class="block"
      id="level_58.0"
       d="m 968.48779,157.60969 -135.21951,-87.804796 -18.87805,11.4146 -54.43902,-34.6829 -83.41464,47.4146 13.17074,8.780496 -129.07317,73.3171 -9.21952,-5.7073 -4.39024,1.7561 -20.63415,-1.7561 -0.87805,8.7804 H 495.2195 l -44.78049,25.4635 -1.31707,39.51219 43.90244,28.5365 61.46341,2.1952 11.85366,8.3414 7.02439,-4.3902 48.73171,31.6097 -1.31707,3.5122 36.87805,24.1464 207.65853,-118.9756 22.39025,15.3658 34.2439,-20.1951 -21.95122,-15.80489 71.12195,-39.5122 z"
       style="fill:none;fill-rule:evenodd" />
  </g>
</svg>
