<?xml version="1.0" encoding="UTF-8" standalone="no"?>
<svg
   xmlns:dc="http://purl.org/dc/elements/1.1/"
   xmlns:cc="http://creativecommons.org/ns#"
   xmlns:rdf="http://www.w3.org/1999/02/22-rdf-syntax-ns#"
   xmlns:svg="http://www.w3.org/2000/svg"
   xmlns="http://www.w3.org/2000/svg"
   xmlns:xlink="http://www.w3.org/1999/xlink"
   viewBox="0 0 2133.3 1133.3"
   height="1133.3"
   width="2133.3"
   version="1.1">

  <g>
    <image
       class="floor"
       id="image20"
       href= "./levels_big.jpg"       
       preserveAspectRatio="none"
       height="1133.3"
       width="2133.3" />
  </g>
  <g>
    <path
       id="pl_level_22"
       class="deck"
       d="m 302.07282,509.13163 63.64145,37.64706 1.79272,-3.58543 26.57384,-12.49465 178.69226,101.23414 249.4502,-155.27819 33.16527,15.18372 34.69544,-23.93914 0.0544,-4.21925 -26.94513,-15.50064 60.05602,-39.43977 -3.6398,38.86033 -25.94003,15.81754 -2.68907,4.48179 -2.68908,34.95798 -37.64705,25.9944 -31.58072,-17.40209 -245.39406,161.71581 -178.37535,-103.97759 -26.89075,13.44538 -62.7451,-37.64706 z"
       style="fill:none;fill-rule:evenodd" />
  </g>
  <g>
    <path
       id="pl_level_27"
       class="deck"
       d="m 321.7927,445.49018 23.30533,11.65266 13.44537,-8.06723 34.06163,19.71989 20.61624,-9.85994 115.63025,65.43417 -15.23809,11.65266 60.95237,33.16526 354.06162,-215.12604 -5.37815,50.42017 -67.45098,44.36974 30.47619,17.25491 -30.70028,19.71988 -32.71709,-15.68627 -250.5322,157.31092 -179.03887,-102.0132 -29.31423,15.37016 -61.00529,-37.07854 22.97602,-11.88414 z"
       style="fill:none;fill-rule:evenodd" />
  </g>
  <g>
    <path
       id="pl_level_37"
       class="deck"
       d="m 316.73146,386.06798 22.09206,9.22612 13.44537,-5.37815 34.95799,14.34174 18.82352,-7.17087 121.90476,63.64145 -14.34173,9.85995 61.84873,32.2689 347.7871,-203.47338 -3.58543,43.02521 0.96144,3.02359 6.97203,3.48602 -353.47967,214.44276 -51.09244,-27.78711 15.2381,-10.30812 -125.93838,-71.70868 -18.82352,9.41176 -35.85434,-18.37535 -12.54902,7.61905 -23.7535,-12.41775 z"
       style="fill:none;fill-rule:evenodd" />
  </g>
  <g>
    <path
       id="pl_level_47"
       class="deck"
       d="m 312.82912,319.10363 11.65266,6.27451 h 91.42857 l 113.94627,52.36007 -16.24319,10.38502 61.68561,33.74472 356.91381,-194.19289 -6.83393,66.10106 -349.91676,203.25467 -52.4595,-26.70511 15.05246,-9.01796 -132.00471,-69.15087 -18.37535,7.61905 -34.50981,-15.2381 -13.89355,5.37815 -21.96079,-9.41176 z"
       style="fill:none;fill-rule:evenodd" />
  </g>

   <g>
    <path
       id="pl_level_58"
       d="m 340.36197,214.86538 81.12912,0.63382 45.63512,20.28228 c 11.69411,-5.58732 46.61113,-21.45726 64.06714,-31.02488 2.92106,-1.60103 -4.51822,-3.16923 -11.27172,-5.28441 l -0.0301,-8.95476 -0.76347,-7.3891 -4.13719,-3.14363 -3.42295,0.84375 -8.02518,-6.14862 -0.46139,-26.54922 3.4327,-3.2601 2.20704,-6.24925 6.83255,-0.1011 5.92565,5.61298 7.44447,0.37809 0.94089,-5.39054 3.55688,-2.48143 7.57861,0.0134 25.80699,-15.24799 198.00276,-97.750637 3.28643,6.265465 -5.19004,2.787119 -3.58777,0.520707 0.63382,3.486016 -174.23915,96.57363 -14.95507,10.5943 -10.15526,3.08101 6.35113,1.97678 4.44953,2.49736 1.79936,8.22148 -3.49697,1.25258 -0.10279,3.57883 3.39715,0.13393 2.78612,1.86352 1.08214,5.16147 -16.9723,8.97763 -5.54394,-1.62862 2.33417,3.08674 1.95514,3.98579 -2.46351,4.07656 1.90146,4.43675 113.13708,-51.97333 180.90158,67.44758 6.07567,-52.8697 20.59919,-8.23967 59.26228,20.9161 -4.89177,52.74041 -355.75248,192.54838 -53.24098,-26.9374 15.2117,-11.09187 -122.32748,-56.41008 -91.58716,-0.31691 -54.50863,-26.30358 v -14.57789 l 7.92277,-39.29691 z"
       style="fill:none;fill-rule:evenodd" />
  </g>
  <g>
    <path
       pointer-events= "visible"
      class="block"
      id="level_22.8"
       d="m 1663.6414,966.72265 -110.2521,-72.60504 -15.6863,9.41177 -44.8179,-27.78712 -67.2269,38.54342 10.7563,7.17087 -103.5294,59.60784 -8.0672,-5.37815 -3.5855,1.79272 -15.2381,-0.89636 -1.7927,6.72269 -23.3053,-1.34454 -36.7507,21.51265 -1.7927,32.2689 35.8543,23.3053 50.1961,1.3445 10.3081,7.6191 4.4818,-3.5855 40.3362,25.9944 -1.3446,2.6891 29.5799,18.3754 166.7226,-95.9104 17.479,12.1008 28.6835,-16.5826 -16.5826,-12.10084 z"
       style="fill:none;fill-rule:evenodd" />
  </g>
  <g>
    <path
    pointer-events= "visible"
      class="block"
      id="level_27.8"
       style="fill:none;fill-rule:evenodd"
       d="m 1663.6414,754.73386 -110.2521,-72.60504 -15.6863,9.41177 -44.8179,-27.78712 -67.2269,38.54342 10.7563,7.17087 -103.5294,59.60784 -8.0672,-5.37815 -3.5855,1.79272 -15.2381,-0.89636 -1.7927,6.72269 -23.3053,-1.34454 -36.7507,21.51265 -1.7927,32.2689 35.8543,23.3053 50.1961,1.3445 10.3081,7.6191 4.4818,-3.5855 40.3362,25.9944 -1.3446,2.6891 29.5799,18.3754 166.7226,-95.9104 17.479,12.1008 28.6835,-16.5826 -16.5826,-12.10084 z"/>
  </g>
  <g>
    <path
       pointer-events= "visible"
      class="block"
      id="level_37.8"
       d="m 1664.5378,542.74507 -110.2521,-72.60504 -15.6863,9.41177 -44.8179,-27.78712 -67.2269,38.54342 10.7563,7.17087 -103.5294,59.60784 -8.0672,-5.37815 -3.5855,1.79272 -15.2381,-0.89636 -1.7927,6.72269 -23.3053,-1.34454 -36.7507,21.51265 -1.7927,32.2689 35.8543,23.3053 50.1961,1.3445 10.3081,7.6191 4.4818,-3.5855 40.3362,25.9944 -1.3446,2.6891 29.5799,18.3754 166.7226,-95.9104 17.479,12.1008 28.6835,-16.5826 -16.5826,-12.10084 z"
       style="fill:none;fill-rule:evenodd" />
  </g>
  <g>
    <path
    pointer-events= "visible"
      class="block"
      id="level_47.8"
       style="fill:none;fill-rule:evenodd"
       d="m 1664.5378,329.85992 -110.2521,-72.60504 -15.6863,9.41177 -44.8179,-27.78712 -67.2269,38.54342 10.7563,7.17087 -103.5294,59.60784 -8.0672,-5.37815 -3.5855,1.79272 -15.2381,-0.89636 -1.7927,6.72269 -23.3053,-1.34454 -36.7507,21.51265 -1.7927,32.2689 35.8543,23.3053 50.1961,1.3445 10.3081,7.6191 4.4818,-3.5855 40.3362,25.9944 -1.3446,2.6891 29.5799,18.3754 166.7226,-95.9104 17.479,12.1008 28.6835,-16.5826 -16.5826,-12.10084 z"/>
  </g>
  <g>
    <path
       pointer-events= "visible"
      class="block"
      id="level_58.0"
       d="m 1663.6414,118.76749 -110.2521,-72.605039 -15.6863,9.41177 -44.8179,-27.78712 -67.2269,38.54342 10.7563,7.17087 -103.5294,59.607839 -8.0672,-5.37815 -3.5855,1.79272 -15.2381,-0.89636 -1.7927,6.72269 -23.3053,-1.34454 -36.7507,21.51265 -1.7927,32.2689 35.8543,23.3053 50.1961,1.3445 10.3081,7.6191 4.4818,-3.5855 40.3362,25.9944 -1.3446,2.6891 29.5799,18.3754 166.7226,-95.9104 17.479,12.1008 28.6835,-16.5826 -16.5826,-12.10084 z"
       style="fill:none;fill-rule:evenodd" />
  </g>

</svg>
  